<svg xmlns="http://www.w3.org/2000/svg" xmlns:xlink="http://www.w3.org/1999/xlink" version="1.1" x="0px" y="0px" viewBox="0 0 65 65" enable-background="new 0 0 65 65" xml:space="preserve"><path d="M63.271,31h-4.188c-0.651-2.187-2.657-3.795-5.054-3.795c-1.078,0-2.08,0.328-2.918,0.883  c-1.931-6.857-8.228-11.905-15.694-11.905H11.607c-0.829,0-1.5,0.671-1.5,1.5v5.149H1.729c-0.829,0-1.5,0.671-1.5,1.5  s0.671,1.5,1.5,1.5h8.378v13.336H1.729c-0.829,0-1.5,0.672-1.5,1.5s0.671,1.5,1.5,1.5h8.378v5.148c0,0.828,0.671,1.5,1.5,1.5h23.809  c7.467,0,13.764-5.047,15.694-11.904c0.838,0.556,1.84,0.883,2.918,0.883c2.396,0,4.402-1.608,5.054-3.795h4.188  c0.828,0,1.5-0.671,1.5-1.5S64.099,31,63.271,31z M35.416,45.816H13.107V19.183h22.309c7.343,0,13.317,5.974,13.317,13.317  S42.759,45.816,35.416,45.816z M54.028,34.795c-1.266,0-2.295-1.029-2.295-2.295s1.029-2.295,2.295-2.295  c1.267,0,2.297,1.03,2.297,2.295S55.295,34.795,54.028,34.795z"/><text x="0" y="80" fill="#000000" font-size="5px" font-weight="bold" font-family="'Helvetica Neue', Helvetica, Arial-Unicode, Arial, Sans-serif">Created by Mohamed Mb</text><text x="0" y="85" fill="#000000" font-size="5px" font-weight="bold" font-family="'Helvetica Neue', Helvetica, Arial-Unicode, Arial, Sans-serif">from the Noun Project</text></svg>