<svg xmlns="http://www.w3.org/2000/svg" data-name="Layer 1" viewBox="0 0 100 100" x="0px" y="0px"><title>Hasil</title><path d="M94.65,48.5h-19a5.4,5.4,0,0,0-10-1L62.23,43c-.3-.39-.61-.78-.92-1.16C54.58,33.71,43.13,29,34.66,27.31L19.2,24.23,27,33.4a24.84,24.84,0,0,1,5.58,12.49,27.24,27.24,0,0,1,.26,3c0,.75,0,1.51,0,2.27a27.27,27.27,0,0,1-.26,3A24.84,24.84,0,0,1,27,66.6L19.2,75.77,34.65,72.7C43.13,71,54.59,66.29,61.32,58.12q.47-.57.93-1.17l3.41-4.41a5.4,5.4,0,0,0,10-1h19ZM59.87,55.12c-.28.37-.57.73-.87,1.09-6.24,7.57-17.33,12-24.93,13.55l-7,1.4,2.22-2.62a27.86,27.86,0,0,0,6.26-14c.15-1.09.25-2.21.29-3.3,0-.82,0-1.66,0-2.48,0-1.09-.14-2.2-.29-3.3a27.86,27.86,0,0,0-6.26-14L27,28.85l7,1.4c7.6,1.52,18.69,6,24.92,13.54.3.35.59.72.87,1.09l4,5.12ZM70.43,52.4a2.4,2.4,0,1,1,2.4-2.4A2.4,2.4,0,0,1,70.43,52.4Z"/><path d="M16.32,67.51v3.4a23.13,23.13,0,0,0,0-41.81v3.39A20.34,20.34,0,0,1,22,37.25H5.35v3H24a20,20,0,0,1,0,19.5H5.35v3H22A20.34,20.34,0,0,1,16.32,67.51Z"/><text x="0" y="115" fill="#000000" font-size="5px" font-weight="bold" font-family="'Helvetica Neue', Helvetica, Arial-Unicode, Arial, Sans-serif">Created by Idris Rizal</text><text x="0" y="120" fill="#000000" font-size="5px" font-weight="bold" font-family="'Helvetica Neue', Helvetica, Arial-Unicode, Arial, Sans-serif">from the Noun Project</text></svg>